<?xml version="1.0" encoding="UTF-8"?><svg id="Capa_2" xmlns="http://www.w3.org/2000/svg" viewBox="0 0 444.96 227.91"><defs><style>.cls-1,.cls-2{fill:red;}.cls-2{fill-rule:evenodd;}</style></defs><g id="Capa_1-2"><g><path class="cls-1" d="M64.25,121.84c0,.81-.42,1.21-1.23,1.21-.3,0-.85-.04-1.63-.12-9.75-1.35-16.82-2.02-21.24-2.02-3.17,0-4.68-.02-4.52-.06-2.26,.2-3.37,.85-3.37,1.96,0,1.78,1.81,2.89,5.45,3.31,.69,.08,3.15,.12,7.37,.12,3.25,0,6.08-.12,8.48-.34,3.41-.32,4.7-.48,3.89-.48,1.05,0,1.57,.65,1.57,1.98,0,1.23-.08,3.11-.26,5.63-.18,2.52-.26,4.4-.26,5.63s.04,3.07,.12,5.51c.08,2.46,.12,4.26,.12,5.47,0,.89-.61,1.33-1.8,1.33,.34,0-1.35-.22-5.05-.69-4.14-.54-8.92-.81-14.35-.81-3.51,0-5.27,.97-5.27,2.91,0,6.02,.12,11.67,.4,16.94,.04,.61,.18,1.98,.42,4.06,.14,1.74,.22,3.11,.22,4.12,0,.89-.69,1.35-2.08,1.35-.44,0-.99-.06-1.68-.18-3.37-.48-8.01-.69-13.93-.69-1.47,0-3.69,.06-6.66,.22-2.95,.16-5.17,.24-6.64,.24-1.29,0-1.92-.56-1.92-1.68,0,.81,.18-2.72,.53-10.56,.57-13.4,.87-22.95,.87-28.68,0-3.84-.56-16.62-1.63-38.38l-.06-.75c-.04-.93,.44-1.39,1.45-1.39,3.05,0,7.65,.08,13.79,.22,6.12,.16,10.74,.24,13.83,.24s8.05-.28,14.49-.81c6.46-.53,11.28-.81,14.49-.81,2.36,0,3.73,1.27,4.06,3.76-.08,2.14,0,5.27,.24,9.41,1.21,7.59,1.8,11.87,1.8,12.84m70.59,33.31c0,1.39-.24,3.27-.75,5.63-.69,3.33-1.07,5.21-1.15,5.65-.32,2.66-.95,6.6-1.92,11.77-.2,.89-.91,1.35-2.14,1.35-.4,0-.93-.06-1.63-.18-6.82-.93-15.85-1.39-27.13-1.39-3.09,0-7.71,.06-13.87,.22-6.14,.16-10.76,.24-13.81,.24-1.29,0-1.92-.56-1.92-1.68,0-4.34,.24-10.84,.69-19.54,.48-8.68,.71-15.2,.71-19.54s-.22-12.62-.65-24.67c-.12-3.09-.32-7.71-.63-13.87l-.06-.81c-.08-.89,.42-1.33,1.45-1.33,3.03,0,7.57,.08,13.61,.22,6.07,.16,10.62,.24,13.68,.24s7.69-.08,13.89-.24c6.18-.14,10.82-.22,13.93-.22,2.16,0,3.45,.97,3.88,2.95,.2,.77,.57,4.18,1.17,10.18,.57,6.03,.87,9.46,.87,10.31,0,.77-.42,1.17-1.23,1.17-2.08,0-5.25-.22-9.47-.63-4.2-.44-7.39-.65-9.51-.65-3.45,0-5.41,.02-5.92,.06-3.01,.28-4.52,1.09-4.52,2.44,0,1.86,1.78,3.03,5.39,3.49,1.01,.12,3.49,.18,7.43,.18,3.25,0,6.36-.16,9.35-.48,3.95-.38,5.55-.57,4.82-.57,1.01,0,1.51,.57,1.51,1.68s-.18,2.76-.52,4.99c-.48,2.76-.71,4.48-.75,5.17-.52,5.19-.75,8.88-.75,11.08,0,.85-.62,1.29-1.8,1.29,.34,0-1.35-.24-5.05-.69-4.14-.52-8.92-.75-14.35-.75-3.51,0-5.27,.95-5.27,2.89,0,.93,.22,1.61,.69,2.04,1.11,.93,6.93,1.39,17.48,1.39,1.43,0,3.57-.12,6.4-.38,2.86-.26,4.99-.38,6.42-.38,.97,0,1.45,.46,1.45,1.39m67.75-2.89c0,7.93-.67,16.35-2.02,25.25-.24,1.39-.83,2.1-1.8,2.1,.61,0-2.16-.22-8.36-.65-8.82-.65-15.87-.97-21.13-.97-2.83,0-7.07,.06-12.72,.22-5.65,.16-9.89,.24-12.7,.24-1.21,0-1.86-.75-1.98-2.26,.08,1.07,.12-.28,.12-4.06l-.06-33.39c0-4.22-.2-10.98-.57-20.25-.36-8.96-.54-15.67-.54-20.21,0-.85,.48-1.27,1.39-1.27,1.65,0,4.08,.08,7.35,.22,3.27,.16,5.73,.24,7.35,.24,1.75,0,4.32-.08,7.77-.26,3.45-.18,6.04-.26,7.79-.26,.61,0,.93,.4,.93,1.21l-.06,.63c-.52,6.56-1.07,16.39-1.69,29.51-.08,5.03-.12,9-.12,11.89,0,3.25,.08,7.05,.24,11.39,.08,1.51,.4,2.26,.99,2.26,4.1,0,8.56-.24,13.4-.69,5.51-.56,10.35-1.31,14.53-2.28,.34-.08,.63-.1,.87-.1,.69,0,1.03,.5,1.03,1.51m68.51,0c0,7.93-.68,16.35-2.02,25.25-.24,1.39-.83,2.1-1.8,2.1,.61,0-2.16-.22-8.36-.65-8.82-.65-15.87-.97-21.13-.97-2.83,0-7.07,.06-12.72,.22-5.65,.16-9.89,.24-12.7,.24-1.21,0-1.86-.75-1.98-2.26,.08,1.07,.12-.28,.12-4.06l-.06-33.39c0-4.22-.2-10.98-.57-20.25-.36-8.96-.54-15.67-.54-20.21,0-.85,.48-1.27,1.39-1.27,1.65,0,4.08,.08,7.35,.22,3.27,.16,5.73,.24,7.35,.24,1.74,0,4.32-.08,7.77-.26,3.45-.18,6.04-.26,7.79-.26,.61,0,.93,.4,.93,1.21l-.06,.63c-.52,6.56-1.07,16.39-1.69,29.51-.08,5.03-.12,9-.12,11.89,0,3.25,.08,7.05,.24,11.39,.08,1.51,.4,2.26,.99,2.26,4.1,0,8.56-.24,13.4-.69,5.51-.56,10.34-1.31,14.53-2.28,.34-.08,.63-.1,.87-.1,.69,0,1.03,.5,1.03,1.51m39.71,24.49c0,1.17-.56,1.74-1.69,1.74-1.66,0-4.16-.08-7.51-.26-3.35-.18-5.89-.26-7.57-.26s-3.98,.06-7.17,.22c-3.19,.16-5.59,.24-7.17,.24-1.29,0-1.92-.56-1.92-1.68,0-4.72,.2-11.85,.6-21.36,.38-9.53,.57-16.67,.57-21.42,0-3.98-.18-9.97-.55-17.91-.38-7.95-.56-13.89-.56-17.79,0-.85,.48-1.27,1.39-1.27,1.7,0,4.28,.08,7.71,.22,3.43,.16,6,.24,7.75,.24,1.62,0,4.06-.08,7.31-.24,3.25-.14,5.67-.22,7.25-.22,1.01,0,1.51,.46,1.51,1.39,0,3.94-.18,9.87-.56,17.8-.36,7.91-.54,13.85-.54,17.79,0,4.76,.18,11.89,.58,21.42,.38,9.51,.57,16.65,.57,21.36m91.67-78.2c0,4.4-.22,11.06-.63,19.94-.44,8.88-.65,15.56-.65,20l-.12,38.62c0,.89-.67,1.33-2.02,1.33s-3.19-.08-5.73-.24c-2.53-.16-4.44-.22-5.71-.22s-3.31,.06-5.98,.22c-2.68,.16-4.68,.24-6.04,.24-.65,0-1.45-.63-2.38-1.92-14.05-19.42-21.66-29.13-22.81-29.13-.56,0-.81,.55-.81,1.68,0,3.01,.12,7.55,.34,13.61,.24,6.04,.36,10.58,.36,13.61,0,1.43-.59,2.14-1.8,2.14-1.39,0-3.49-.08-6.3-.24-2.79-.16-4.89-.22-6.3-.22-1.51,0-3.79,.06-6.82,.22-3.03,.16-5.31,.24-6.82,.24-1.29,0-1.92-.56-1.92-1.68,0-4.22,.2-10.56,.6-19,.38-8.46,.57-14.8,.57-19.02s-.18-11.02-.55-19.82c-.38-8.82-.56-15.4-.56-19.78,0-.85,.79-1.27,2.38-1.27,1.74,0,5.53-.34,11.34-.99,.77-.08,2.83-.42,6.2-.99,2.56-.46,4.6-.69,6.16-.69,.53,0,1.33,.83,2.38,2.5,.65,1.05,3.77,5.47,9.34,13.3,2.99,4.36,7.69,10.72,14.11,19.04,.4-.28,.6-1.55,.6-3.78,0-2.97-.26-7.47-.75-13.5-.52-6.02-.77-10.52-.77-13.5,0-1.5,.4-2.26,1.17-2.26,1.54,0,3.86,.06,6.97,.16,3.09,.12,5.41,.18,6.96,.18,1.66,0,4.16-.06,7.49-.18,3.33-.1,5.83-.16,7.49-.16,.69,0,1.05,.52,1.05,1.57m42.43,78.2c0,1.17-.55,1.74-1.68,1.74-1.66,0-4.16-.08-7.51-.26-3.35-.18-5.88-.26-7.57-.26s-3.98,.06-7.17,.22c-3.19,.16-5.59,.24-7.17,.24-1.29,0-1.92-.56-1.92-1.68,0-4.72,.2-11.85,.59-21.36,.38-9.53,.58-16.67,.58-21.42,0-3.98-.18-9.97-.56-17.91-.38-7.95-.56-13.89-.56-17.79,0-.85,.48-1.27,1.39-1.27,1.7,0,4.28,.08,7.71,.22,3.43,.16,6,.24,7.75,.24,1.62,0,4.06-.08,7.31-.24,3.25-.14,5.67-.22,7.25-.22,1.01,0,1.51,.46,1.51,1.39,0,3.94-.18,9.87-.56,17.8-.36,7.91-.53,13.85-.53,17.79,0,4.76,.18,11.89,.57,21.42,.38,9.51,.57,16.65,.57,21.36"/><path class="cls-1" d="M158.08,86.04c-4.84,0-8.66-1.7-11.44-5.08-2.78-3.38-4.18-8.05-4.18-13.99,0-6.96,1.82-14.85,5.43-23.68,3.61-8.83,8.42-16.97,14.45-24.38,4.78-5.95,9.71-10.57,14.79-13.91,5.09-3.33,9.68-5,13.83-5,3.37,0,5.99,.97,7.85,2.9,1.86,1.92,2.78,4.67,2.78,8.24,0,3.15-.75,6.18-2.23,9.06-1.5,2.88-3.66,5.53-6.5,7.95-1.64,1.35-3.4,2.48-5.29,3.4-1.87,.91-3.33,1.37-4.34,1.37-.79,0-1.63-.6-2.49-1.83-.88-1.22-1.31-2.32-1.31-3.27,0-.71,.89-1.4,2.68-2.05,1.79-.66,3.28-1.37,4.49-2.09,2.36-1.44,4.18-3.2,5.45-5.27,1.27-2.09,1.9-4.31,1.9-6.67,0-1.6-.32-2.81-.95-3.63-.63-.82-1.58-1.22-2.85-1.22-2.42,0-5.34,1.5-8.77,4.48-3.44,2.98-7.03,7.14-10.76,12.49-5.46,7.85-9.71,15.6-12.73,23.26-3.02,7.68-4.54,14.4-4.54,20.19,0,3.04,.55,5.33,1.63,6.86,1.08,1.54,2.69,2.31,4.82,2.31,2.85,0,5.79-1.07,8.83-3.18,3.04-2.13,6.09-5.27,9.16-9.43,.5-.65,1.08-1.56,1.73-2.71,.92-1.6,1.74-2.41,2.44-2.41,.79,0,1.66,.48,2.62,1.44,.95,.95,1.43,1.83,1.43,2.61,0,.62-.39,1.61-1.18,2.95-.79,1.35-1.9,2.95-3.33,4.78-4.03,5.05-8.02,8.91-12.01,11.56-3.97,2.64-7.78,3.96-11.41,3.96"/><path class="cls-1" d="M190.66,83.63l1.6-5.7c1.47,0,3.03-.43,4.7-1.28,1.66-.86,3.53-2.22,5.6-4.08,.93-6.38,2.22-12.98,3.86-19.76,1.64-6.8,3.59-13.51,5.8-20.15,1.86-5.49,3.6-9.28,5.21-11.38,1.61-2.09,3.49-3.14,5.59-3.14,1.41,0,2.56,.56,3.49,1.68,.91,1.12,1.37,2.58,1.37,4.35,0,2.19-.82,4.98-2.46,8.37-1.66,3.4-3.87,6.83-6.7,10.33-2.16,6.94-3.9,13.32-5.2,19.15-1.31,5.82-1.97,9.68-1.97,11.6,0,1.53,.39,2.62,1.15,3.3,.75,.68,2.02,1.01,3.79,1.01l-1.64,5.7h-.96c-3.15,0-5.6-.45-7.35-1.35-1.74-.89-2.88-2.29-3.39-4.18-1.86,1.71-3.83,3.04-5.95,3.96-2.1,.94-4.29,1.45-6.54,1.57m24.18,0l1.66-5.7c1.69-.09,3.3-.35,4.82-.81,1.54-.45,3.04-1.09,4.54-1.93-.03-.2-.04-.4-.06-.62-.01-.2-.03-.52-.03-.93,0-2.8,1.49-8.47,4.44-17.05,.56-1.6,.98-2.84,1.27-3.72,.27-.78,.65-1.86,1.09-3.2,1.46-4.48,2.91-6.71,4.35-6.71,1.92,0,3.79,.36,5.63,1.08,1.84,.71,2.77,1.47,2.77,2.29,0,.3-.68,1.87-2,4.68-1.34,2.81-2.55,5.52-3.62,8.11-1.74,4.25-2.97,7.48-3.69,9.71-.72,2.22-1.08,3.85-1.08,4.88,0,.88,.22,1.54,.65,1.99,.45,.45,1.07,.68,1.89,.68,1.92,0,4.11-1.55,6.58-4.67,2.48-3.11,4.82-7.27,7.04-12.51,1.24-2.84,2.4-6.18,3.5-10.04,1.12-3.96,2.68-5.95,4.65-5.95,1.86,0,3.49,.3,4.9,.92,1.4,.62,2.1,1.35,2.1,2.2,0,.3-.65,1.9-1.94,4.77-1.3,2.87-2.43,5.57-3.41,8.1-1.38,3.56-2.41,6.54-3.07,8.97-.65,2.43-.98,4.39-.98,5.89,0,1.4,.37,2.38,1.11,2.92,.75,.55,2.2,.86,4.38,.95l-1.61,5.7h-.79c-4.03,0-6.83-.48-8.38-1.41-1.56-.95-2.35-2.59-2.35-4.95,0-.97,.16-2.14,.48-3.56,.3-1.4,.81-3.24,1.51-5.52-4.16,6.18-7.48,10.31-9.94,12.36-2.46,2.06-5.04,3.08-7.75,3.08-1.8,0-3.29-.32-4.47-.93-1.18-.62-2.03-1.54-2.53-2.78-1.63,1.12-3.36,1.97-5.18,2.55-1.83,.58-3.99,.97-6.47,1.17m47.53-5.7c1.74-.11,3.31-.38,4.73-.79,1.4-.42,2.62-.99,3.67-1.73-.09-.92-.14-1.67-.16-2.22-.01-.55-.01-1.05-.01-1.54,0-2.52,.84-7.07,2.49-13.63,1.66-6.55,3.86-13.6,6.58-21.14,2.84-7.91,5.07-12.89,6.67-14.96,1.6-2.06,3.5-3.1,5.7-3.1,1.51,0,2.75,.53,3.7,1.6,.96,1.08,1.44,2.48,1.44,4.22,0,2.91-.74,5.8-2.19,8.71-1.47,2.92-3.63,5.79-6.5,8.64-2.59,7.3-4.62,13.77-6.11,19.39-1.48,5.62-2.22,9.59-2.22,11.93,0,1.1,.26,1.93,.76,2.52,.5,.59,1.24,.89,2.19,.89,2.65,0,5.18-1.89,7.61-5.66,2.42-3.76,3.73-8.21,3.96-13.34-2-.16-3.47-.73-4.42-1.7-.97-.98-1.44-2.36-1.44-4.16,0-1.94,.55-3.5,1.64-4.69,1.09-1.2,2.56-1.8,4.39-1.8,2.28,0,4.12,1.01,5.55,3.01,1.42,2.02,2.13,4.64,2.13,7.88,0,7.4-2.13,13.84-6.39,19.33-4.26,5.49-9.15,8.22-14.66,8.22-1.69,0-3.27-.28-4.75-.82-1.47-.55-2.72-1.34-3.73-2.35-1.86,.92-3.77,1.64-5.76,2.13-1.99,.49-4.16,.78-6.52,.86l1.66-5.7Z"/><path class="cls-1" d="M203.69,217.17c0,2.97-.92,5.43-2.78,7.38-2.12,2.24-5.83,3.36-11.13,3.36-.41,0-.98,0-1.74-.02h-1.72c-5.96,0-9.5-.12-10.63-.36-.47-.1-.7-.35-.7-.75,0-1.73,.1-4.34,.3-7.84,.2-3.5,.3-6.12,.3-7.87,0-1.88-.1-5.39-.3-10.55-.05-1.32-.14-3.31-.27-5.96l-.03-.34c-.02-.31,.24-.49,.76-.55,.53-.07,2.4-.1,5.61-.1,5.16,0,8.16,.02,9.04,.05,3.97,.14,6.91,.79,8.8,1.93,2.51,1.54,3.75,4.13,3.75,7.78,0,.95-.29,1.96-.88,3.02-.42,.76-.97,1.52-1.64,2.28-.6,.66-.9,.97-.9,.92,0,.12,.21,.29,.63,.53,1.13,.64,2.02,1.67,2.67,3.07,.58,1.26,.87,2.59,.87,4.01m-10.41-13.64c0-1.39-.69-2.31-2.08-2.76-.77-.24-2.04-.36-3.82-.36s-2.61,.13-2.61,.39c0,.3-.02,.77-.08,1.39-.06,.62-.09,1.09-.09,1.4,0,1.61,.14,2.51,.41,2.71,.17,.14,1.2,.21,3.07,.21,3.46,0,5.2-.99,5.2-2.97m.74,13.54c0-1.45-.6-2.43-1.82-2.95-.78-.32-2.04-.48-3.78-.48-2.09,0-3.22,.07-3.41,.23-.17,.15-.26,1.14-.26,2.96s.11,2.95,.32,3.15c.21,.21,1.38,.3,3.49,.3,1.75,0,2.98-.14,3.69-.41,1.18-.46,1.77-1.4,1.77-2.8m44.65,9.94c0,.3-.2,.5-.6,.61-.49,.13-1.99,.19-4.5,.19-2.31,0-3.79-.06-4.45-.19-.55-.11-.89-.48-1.03-1.1-.51-2.36-.92-3.62-1.21-3.78-.26-.09-2.43-.13-6.5-.13-2.74,0-4.21,.07-4.39,.21-.28,.26-.6,1.12-.95,2.6-.32,1.35-.69,2.08-1.13,2.19-.55,.13-2.39,.19-5.52,.19-2.47,0-3.7-.23-3.7-.7,0-.42,1.82-5.58,5.45-15.48,3.93-10.71,6.07-16.59,6.41-17.66,.2-.6,.42-.9,.68-.9,.45,0,1.12,.04,2.04,.12,.92,.08,1.6,.12,2.06,.12s1.08-.02,1.94-.08c.85-.06,1.49-.09,1.91-.09,.31,0,.59,.27,.86,.8,.79,1.69,3.09,7.5,6.9,17.43,3.83,10,5.75,15.21,5.75,15.63m-17.15-22.06c-.34,.71-.92,2.26-1.74,4.63-.84,2.51-1.27,3.98-1.27,4.41,0,.3,.48,.46,1.43,.5,.5,.03,1.3,.05,2.44,.05,1.06,0,1.64-.13,1.75-.39,.03-.08,.04-.19,.04-.34,0-.53-.36-1.99-1.07-4.39-.73-2.33-1.26-3.82-1.59-4.47m48.5,22.43c0,.12-.16,.2-.49,.25-.61,.1-2.15,.15-4.62,.15-2.12,0-3.54-.05-4.31-.15-.36-.04-.55-.08-.6-.11-.1-.05-.21-.21-.34-.49-.25-.63-.6-1.57-1.08-2.81-.63-1.61-1.62-3.99-2.96-7.14-.29-.64-.96-.98-2-1.05,.48,.03-.35,.05-2.48,.05-.24,0-.36,.41-.36,1.23,0,1.1,.1,2.74,.3,4.93,.2,2.17,.3,3.82,.3,4.92,0,.27-.07,.44-.21,.48-.23,.02-.45,.03-.68,.05-.96,.07-2.44,.1-4.45,.1-2.31,0-3.69-.05-4.17-.15-.47-.09-.7-.34-.7-.74,0-1.78,.08-4.46,.25-8.04,.16-3.59,.25-6.27,.25-8.06,0-6.82-.15-12.16-.45-15.97l-.02-.34c-.02-.28,.24-.46,.76-.56,.53-.1,2.99-.19,7.4-.29,2.98-.07,5.36-.1,7.13-.1,3.69,0,6.68,.83,9.01,2.5,2.63,1.87,3.94,4.57,3.94,8.1,0,2.36-.34,4.24-1.01,5.64-.67,1.4-1.92,2.77-3.74,4.09-.37,.26-.55,.5-.55,.73,0-.02,.98,2.01,2.95,6.08,1.96,4.07,2.95,6.31,2.95,6.73m-10.16-21.72c0-1.97-.64-3.33-1.93-4.09-1-.58-2.57-.87-4.69-.87-1.54,0-2.35,.23-2.44,.7-.1,.54-.15,2.13-.15,4.74,0,.37,0,.92,.02,1.64,.02,.73,.02,1.27,.02,1.62,0,.08,.26,.17,.78,.25,.98,.14,2.02,.22,3.1,.22,3.53,0,5.3-1.4,5.3-4.21"/><path class="cls-2" d="M0,207.43H162.92v6.12H0v-6.12Zm279.63,0h165.33v6.12h-165.33v-6.12Z"/></g></g></svg>